<svg xmlns="http://www.w3.org/2000/svg" version="1.1" xmlns:xlink="http://www.w3.org/1999/xlink" xmlns:svgjs="http://svgjs.dev/svgjs" width="1000" height="95" viewBox="0 0 1000 95"><g transform="matrix(1,0,0,1,-0.6060606060606233,0.2533342810608019)"><svg viewBox="0 0 396 38" data-background-color="#282634" preserveAspectRatio="xMidYMid meet" height="95" width="1000" xmlns="http://www.w3.org/2000/svg" xmlns:xlink="http://www.w3.org/1999/xlink"><g id="tight-bounds" transform="matrix(1,0,0,1,0.2400000000000091,-0.10133371242432077)"><svg viewBox="0 0 395.52 38.20266742484861" height="38.20266742484861" width="395.52"><g><svg viewBox="0 0 499.27878340348207 48.2245684532925" height="38.20266742484861" width="395.52"><g><rect width="4.327304826738867" height="48.2245684532925" x="88.103455470097" y="0" fill="#ff4057" opacity="1" stroke-width="0" stroke="transparent" fill-opacity="1" class="rect-o-0" data-fill-palette-color="primary" rx="1%" id="o-0" data-palette-color="#ff4057"></rect></g><g transform="matrix(1,0,0,1,103.75878340348211,0.11996161306788977)"><svg viewBox="0 0 395.52 47.98464522715672" height="47.98464522715672" width="395.52"><g id="textblocktransform"><svg viewBox="0 0 395.52 47.98464522715672" height="47.98464522715672" width="395.52" id="textblock"><g><svg viewBox="0 0 395.52 47.98464522715672" height="47.98464522715672" width="395.52"><g transform="matrix(1,0,0,1,0,0)"><svg width="395.52" viewBox="1.6500000953674316 -35.29999923706055 293.83001708984375 35.64999771118164" height="47.98464522715672" data-palette-color="#ff4057"><path d="M27.25 0L24.45-7.75 9.25-7.75 6.45 0 1.65 0 14.25-34.65 19.5-34.65 32.05 0 27.25 0ZM10.55-11.45L23.15-11.45 16.85-29.05 10.55-11.45ZM56.3-31.15L42.1-31.15 42.1-19.5 54.8-19.5 54.8-15.75 42.1-15.75 42.1-3.75 56.3-3.75 56.3 0 37.55 0 37.55-34.9 56.3-34.9 56.3-31.15ZM87 0L81.55 0 73.25-14.25 67.75-14.25 67.75 0 63.2 0 63.2-34.85 74.45-34.85Q78.4-34.85 81.12-33.5 83.85-32.15 85.2-29.85 86.55-27.55 86.55-24.6L86.55-24.6Q86.55-21 84.47-18.25 82.4-15.5 78.25-14.6L78.25-14.6 87 0ZM67.75-31.1L67.75-17.9 74.45-17.9Q78.15-17.9 80-19.73 81.85-21.55 81.85-24.6L81.85-24.6Q81.85-27.7 80.02-29.4 78.2-31.1 74.45-31.1L74.45-31.1 67.75-31.1ZM109.39 0.35Q104.54 0.35 100.54-1.93 96.54-4.2 94.22-8.28 91.89-12.35 91.89-17.45L91.89-17.45Q91.89-22.55 94.22-26.63 96.54-30.7 100.54-32.98 104.54-35.25 109.39-35.25L109.39-35.25Q114.29-35.25 118.29-32.98 122.29-30.7 124.59-26.65 126.89-22.6 126.89-17.45L126.89-17.45Q126.89-12.3 124.59-8.25 122.29-4.2 118.29-1.93 114.29 0.35 109.39 0.35L109.39 0.35ZM109.39-3.6Q113.04-3.6 115.97-5.3 118.89-7 120.57-10.15 122.24-13.3 122.24-17.45L122.24-17.45Q122.24-21.65 120.57-24.78 118.89-27.9 115.99-29.6 113.09-31.3 109.39-31.3L109.39-31.3Q105.69-31.3 102.79-29.6 99.89-27.9 98.22-24.78 96.54-21.65 96.54-17.45L96.54-17.45Q96.54-13.3 98.22-10.15 99.89-7 102.82-5.3 105.74-3.6 109.39-3.6L109.39-3.6ZM131.19-17.45Q131.19-22.55 133.49-26.63 135.79-30.7 139.77-33 143.74-35.3 148.59-35.3L148.59-35.3Q154.29-35.3 158.54-32.55 162.79-29.8 164.74-24.75L164.74-24.75 159.29-24.75Q157.84-27.9 155.12-29.6 152.39-31.3 148.59-31.3L148.59-31.3Q144.94-31.3 142.04-29.6 139.14-27.9 137.49-24.78 135.84-21.65 135.84-17.45L135.84-17.45Q135.84-13.3 137.49-10.18 139.14-7.05 142.04-5.35 144.94-3.65 148.59-3.65L148.59-3.65Q152.39-3.65 155.12-5.33 157.84-7 159.29-10.15L159.29-10.15 164.74-10.15Q162.79-5.15 158.54-2.43 154.29 0.3 148.59 0.3L148.59 0.3Q143.74 0.3 139.77-1.98 135.79-4.25 133.49-8.3 131.19-12.35 131.19-17.45L131.19-17.45ZM176.04-34.85L176.04-3.7 188.24-3.7 188.24 0 171.49 0 171.49-34.85 176.04-34.85ZM208.89 0.35Q204.04 0.35 200.04-1.93 196.04-4.2 193.71-8.28 191.39-12.35 191.39-17.45L191.39-17.45Q191.39-22.55 193.71-26.63 196.04-30.7 200.04-32.98 204.04-35.25 208.89-35.25L208.89-35.25Q213.79-35.25 217.79-32.98 221.79-30.7 224.09-26.65 226.39-22.6 226.39-17.45L226.39-17.45Q226.39-12.3 224.09-8.25 221.79-4.2 217.79-1.93 213.79 0.35 208.89 0.35L208.89 0.35ZM208.89-3.6Q212.54-3.6 215.46-5.3 218.39-7 220.06-10.15 221.74-13.3 221.74-17.45L221.74-17.45Q221.74-21.65 220.06-24.78 218.39-27.9 215.49-29.6 212.59-31.3 208.89-31.3L208.89-31.3Q205.19-31.3 202.29-29.6 199.39-27.9 197.71-24.78 196.04-21.65 196.04-17.45L196.04-17.45Q196.04-13.3 197.71-10.15 199.39-7 202.31-5.3 205.24-3.6 208.89-3.6L208.89-3.6ZM232.28-34.85L236.83-34.85 236.83-12.8Q236.83-8.15 239.11-5.9 241.38-3.65 245.43-3.65L245.43-3.65Q249.43-3.65 251.71-5.9 253.98-8.15 253.98-12.8L253.98-12.8 253.98-34.85 258.53-34.85 258.53-12.85Q258.53-8.5 256.78-5.53 255.03-2.55 252.06-1.1 249.08 0.35 245.38 0.35L245.38 0.35Q241.68 0.35 238.71-1.1 235.73-2.55 234.01-5.53 232.28-8.5 232.28-12.85L232.28-12.85 232.28-34.85ZM276.98-34.85Q282.68-34.85 286.86-32.73 291.03-30.6 293.26-26.65 295.48-22.7 295.48-17.35L295.48-17.35Q295.48-12 293.26-8.08 291.03-4.15 286.86-2.08 282.68 0 276.98 0L276.98 0 266.13 0 266.13-34.85 276.98-34.85ZM276.98-3.75Q283.73-3.75 287.28-7.33 290.83-10.9 290.83-17.35L290.83-17.35Q290.83-23.85 287.26-27.5 283.68-31.15 276.98-31.15L276.98-31.15 270.68-31.15 270.68-3.75 276.98-3.75Z" opacity="1" transform="matrix(1,0,0,1,0,0)" fill="#ff4057" class="wordmark-text-0" data-fill-palette-color="primary" id="text-0"></path></svg></g></svg></g></svg></g></svg></g><g transform="matrix(1,0,0,1,0,0.11996161306788977)"><svg viewBox="0 0 76.77543236345075 47.98464522715672" height="47.98464522715672" width="76.77543236345075"><g><svg xmlns="http://www.w3.org/2000/svg" xmlns:xlink="http://www.w3.org/1999/xlink" version="1.1" x="0" y="0" viewBox="0 0 100 62.5" style="enable-background:new 0 0 100 62.5;" xml:space="preserve" width="76.77543236345075" height="47.98464522715672" class="icon-icon-0" data-fill-palette-color="accent" id="icon-0"><path d="M75 12.5c-1.184 0-2.307 0.189-3.442 0.348C67.199 5.146 59.143 0 50 0c-9.338 0-17.395 5.206-21.691 12.812C27.209 12.665 26.111 12.5 25 12.5c-13.781 0-25 11.212-25 25 0 13.794 11.219 25 25 25h50c13.781 0 25-11.206 25-25C100 23.712 88.781 12.5 75 12.5zM75 50H25c-6.896 0-12.5-5.609-12.5-12.5 0-6.854 6.066-12.14 12.512-12.329 0.025 2.948 0.537 5.841 1.562 8.575l11.707-4.382C37.756 27.979 37.5 26.508 37.5 25c0-6.891 5.604-12.5 12.5-12.5 4.041 0 7.703 2.002 9.998 5.121C53.967 22.187 50 29.357 50 37.5h12.5C62.5 30.609 68.104 25 75 25s12.5 5.609 12.5 12.5S81.896 50 75 50z" fill="#dcdcdc" data-fill-palette-color="accent"></path></svg></g></svg></g></svg></g><defs></defs></svg><rect width="395.52" height="38.20266742484861" fill="none" stroke="none" visibility="hidden"></rect></g></svg></g></svg>