<svg version="1.1" id="Layer_1" xmlns="http://www.w3.org/2000/svg" xmlns:xlink="http://www.w3.org/1999/xlink" x="0px" y="0px"
	 width="100%" viewBox="0 0 1024 1024" enable-background="new 0 0 1024 1024" xml:space="preserve">
<path fill="#000000" opacity="1.000000" stroke="none" 
	d="
M647.000000,1025.000000 
	C431.333344,1025.000000 216.166672,1025.000000 1.000000,1025.000000 
	C1.000000,683.666687 1.000000,342.333344 1.000000,1.000000 
	C342.333344,1.000000 683.666687,1.000000 1025.000000,1.000000 
	C1025.000000,342.333344 1025.000000,683.666687 1025.000000,1025.000000 
	C899.166687,1025.000000 773.333313,1025.000000 647.000000,1025.000000 
M478.573486,294.579285 
	C478.580292,293.480286 478.587097,292.381317 478.854126,290.591919 
	C478.809937,284.738586 478.765747,278.885254 478.907074,272.113800 
	C478.907074,267.874603 478.907074,263.635376 478.907074,259.325867 
	C468.684998,259.325867 459.126709,259.325867 449.373535,259.325867 
	C449.373535,271.616577 449.373535,283.599548 449.373535,295.890594 
	C454.211945,295.890594 458.675171,296.013611 463.128601,295.857574 
	C468.007416,295.686615 472.877197,295.258087 477.911713,294.957886 
	C477.911713,294.957886 477.925934,294.796936 478.573486,294.579285 
M532.343140,238.911606 
	C531.281799,240.098480 530.103333,241.200958 529.177734,242.485641 
	C521.873474,252.622833 514.725647,262.646667 510.663544,274.874268 
	C505.560181,290.236145 501.591492,305.513062 504.222534,321.723145 
	C507.581146,342.415588 515.385437,361.282684 529.409363,377.091034 
	C540.438660,389.523682 553.179016,399.246216 569.614014,404.381744 
	C579.694031,407.531525 589.549194,410.869202 600.090942,411.772247 
	C618.614929,413.359100 635.507812,407.423492 651.994446,400.092224 
	C661.907166,395.684235 669.674255,388.309753 677.521667,380.919159 
	C686.902588,372.084381 693.106934,361.266083 697.587097,349.677887 
	C701.818054,338.733978 706.642212,327.715027 706.968445,315.592438 
	C706.976685,315.285767 707.340332,314.980804 707.329407,314.682678 
	C707.139587,309.492401 707.064209,304.290741 706.622925,299.120667 
	C706.465027,297.269531 705.182922,295.540894 704.802307,293.677002 
	C703.824768,288.890778 703.869751,283.733643 702.073914,279.305603 
	C695.454529,262.984589 688.393066,247.117706 674.478149,234.935318 
	C661.707397,223.754654 647.478577,215.497498 631.657654,210.571228 
	C615.710266,205.605591 598.858704,205.298035 582.695496,209.759094 
	C563.792603,214.976303 546.695251,224.094498 532.343140,238.911606 
M362.276733,584.599182 
	C367.979767,584.629089 372.994904,583.079346 377.066345,578.783752 
	C381.156616,574.468323 385.433807,570.326721 389.702026,566.184143 
	C397.520294,558.595886 405.486420,551.157776 413.213501,543.478516 
	C419.965332,536.768555 426.303986,529.638855 433.130066,523.008484 
	C442.460815,513.945190 452.205811,505.308533 461.544891,496.253510 
	C473.633514,484.532471 485.497070,472.579346 498.071838,460.117371 
	C486.872620,449.294159 475.082031,437.899445 463.205139,426.421295 
	C461.440369,428.087982 459.917877,429.342224 458.611267,430.791199 
	C452.462158,437.610229 446.531403,444.633301 440.222626,451.299530 
	C431.485565,460.531738 422.486694,469.516418 413.586761,478.594208 
	C408.612061,483.668335 403.464142,488.581512 398.654785,493.806946 
	C390.833557,502.304810 383.406128,511.169220 375.484344,519.569397 
	C364.739960,530.962585 353.651093,542.030090 342.786316,553.310852 
	C339.573212,556.647034 338.936737,574.665283 341.741028,578.251404 
	C342.140198,578.761963 342.721039,579.128174 343.204803,579.575195 
	C348.395660,584.372437 354.811432,584.735718 362.276733,584.599182 
M522.486023,406.024323 
	C520.056580,403.784393 517.287476,401.813660 515.260071,399.255157 
	C508.600891,390.851624 502.138702,382.288361 495.743683,373.680328 
	C491.727936,368.274872 490.922424,367.995544 485.629150,372.228088 
	C484.269989,373.314880 482.800720,374.773010 482.308624,376.349731 
	C479.749023,384.550751 477.487793,392.975372 481.443542,401.275421 
	C483.471161,405.529846 486.286377,409.517517 489.301117,413.166962 
	C493.588348,418.356720 498.526428,423.003601 502.930786,428.103241 
	C508.119537,434.111084 514.169189,438.778198 521.663940,441.485931 
	C527.129272,443.460510 533.397217,442.179779 535.829468,437.956085 
	C538.445129,433.413757 540.421692,428.499084 542.607361,423.715057 
	C543.895630,420.895294 542.738220,419.431610 540.081299,417.887390 
	C534.154114,414.442413 528.548401,410.444244 522.486023,406.024323 
M637.156311,458.458618 
	C637.156311,461.875061 637.156311,465.291473 637.156311,468.514404 
	C649.548340,468.514404 661.086792,468.514404 672.526123,468.514404 
	C672.526123,456.182892 672.526123,444.312714 672.526123,432.371094 
	C660.540100,432.371094 648.994080,432.371094 637.154907,432.371094 
	C637.154907,440.921387 637.154907,449.195221 637.156311,458.458618 
M464.336731,327.164215 
	C461.344269,327.211456 458.256042,326.825500 455.393127,327.458496 
	C453.489227,327.879456 450.604797,329.576752 450.407593,331.011688 
	C449.578430,337.045349 449.319489,343.199371 449.409149,349.301147 
	C449.460449,352.793915 450.581390,356.112000 455.383698,355.985291 
	C462.410400,355.799927 469.445892,355.931885 476.470459,355.706726 
	C477.095825,355.686676 478.172821,354.046082 478.187683,353.144135 
	C478.322083,344.987305 478.266357,336.827362 478.266357,328.539398 
	C474.078339,328.098816 469.677032,327.635773 464.336731,327.164215 
M587.899597,436.752594 
	C587.828308,435.289001 587.757019,433.825378 587.671692,432.073120 
	C577.738037,432.073120 568.089905,432.073120 558.352051,432.073120 
	C558.352051,441.608459 558.352051,450.505524 558.352051,459.551727 
	C568.351807,459.551727 578.033508,459.551727 587.927551,459.551727 
	C587.927551,451.988708 587.927551,444.844879 587.899597,436.752594 
M281.038055,272.491852 
	C281.038055,276.579071 281.038055,280.666290 281.038055,284.637939 
	C289.997650,284.637939 298.254669,284.637939 306.928864,284.637939 
	C306.928864,276.356598 307.042999,268.395416 306.796265,260.445404 
	C306.762268,259.350494 304.969666,257.424744 303.937683,257.388031 
	C296.495728,257.123199 289.039948,257.246094 281.043060,257.246094 
	C281.043060,262.264587 281.043060,266.881134 281.038055,272.491852 
M322.059937,332.761200 
	C322.059937,340.336731 322.059937,347.912262 322.059937,355.064697 
	C330.727264,355.064697 338.683441,355.064697 346.910461,355.064697 
	C346.910461,346.805145 347.056396,339.344299 346.765594,331.900513 
	C346.717621,330.672180 344.813110,328.558563 343.669464,328.490692 
	C337.551605,328.127563 331.398773,328.408569 325.266724,328.205078 
	C322.396545,328.109833 321.879852,329.510468 322.059937,332.761200 
M434.904785,303.945007 
	C435.781189,302.596497 437.406372,301.246674 437.403992,299.899658 
	C437.393951,294.156372 436.902710,288.413910 436.574493,282.442596 
	C426.650635,282.442596 416.959930,282.442596 407.270630,282.442596 
	C407.270630,289.664093 407.270630,296.465729 407.270630,303.982239 
	C416.307312,303.982239 425.158234,303.982239 434.904785,303.945007 
M761.592529,468.066345 
	C762.423279,468.555237 763.971130,469.490051 763.983582,469.470093 
	C767.230774,464.248352 770.137146,469.392456 773.477844,469.763855 
	C775.620911,465.000977 784.973816,466.963806 783.917480,459.209930 
	C781.769104,458.091949 779.133240,457.578613 778.118286,456.013824 
	C775.992004,452.735809 774.719238,448.904175 772.626770,444.258057 
	C770.893494,446.397980 770.087952,448.150940 768.740173,448.833710 
	C767.503662,449.460144 765.510376,449.358276 764.159485,448.812622 
	C762.180237,448.013184 760.476440,446.531769 758.655273,445.340973 
	C758.119385,447.625244 757.595581,449.912476 757.032837,452.190125 
	C756.960571,452.482727 756.685913,452.725311 756.488525,453.015228 
	C754.186890,452.708954 751.876953,452.401581 749.629272,452.102478 
	C750.886292,455.114899 752.180786,457.619720 752.966003,460.275116 
	C753.682190,462.697021 753.846313,465.282166 754.274536,467.923309 
	C756.496338,467.923309 758.651062,467.923309 761.592529,468.066345 
M719.038940,448.402893 
	C717.210815,447.649780 715.426086,446.758942 713.546997,446.167725 
	C705.952759,443.778229 695.980286,451.557281 697.159241,458.890472 
	C698.049927,464.430328 703.074219,468.726074 709.803345,469.701019 
	C714.325012,470.356140 720.746094,466.584167 723.196777,461.833313 
	C725.643188,457.090729 724.795898,453.984741 719.038940,448.402893 
M375.387726,282.938110 
	C379.092957,285.187500 382.538696,284.813263 385.500824,281.673584 
	C389.368317,277.574219 390.330261,271.953796 388.036163,267.907440 
	C384.388947,261.474426 378.973083,259.375610 374.342438,262.600647 
	C366.599579,267.993195 366.742432,277.232635 375.387726,282.938110 
M673.322083,550.538086 
	C673.709656,553.116882 674.097229,555.695679 674.513550,558.465942 
	C680.240479,558.465942 685.919739,558.465942 691.864258,558.465942 
	C691.864258,556.105591 691.863892,554.128601 691.864319,552.151672 
	C691.867004,540.250732 691.864868,540.375977 680.123840,540.167297 
	C675.577087,540.086487 672.519165,540.680786 673.947327,546.356567 
	C674.199890,547.360474 673.559814,548.588867 673.322083,550.538086 
M752.088318,539.063904 
	C753.331787,543.943298 755.542053,545.129028 762.257935,544.963318 
	C765.691040,544.878540 768.029663,543.482666 768.786621,540.144470 
	C770.061890,534.519958 768.193848,529.716370 764.380066,528.181458 
	C756.784729,525.124634 752.426392,528.684326 752.088318,539.063904 
z"/>
<path fill="#24EEF2" opacity="1.000000" stroke="none" 
	d="
M532.534058,238.611115 
	C546.695251,224.094498 563.792603,214.976303 582.695496,209.759094 
	C598.858704,205.298035 615.710266,205.605591 631.657654,210.571228 
	C647.478577,215.497498 661.707397,223.754654 674.478149,234.935318 
	C688.393066,247.117706 695.454529,262.984589 702.073914,279.305603 
	C703.869751,283.733643 703.824768,288.890778 704.802307,293.677002 
	C705.182922,295.540894 706.465027,297.269531 706.622925,299.120667 
	C707.064209,304.290741 707.139587,309.492401 707.329407,314.682678 
	C707.340332,314.980804 706.976685,315.285767 706.968445,315.592438 
	C706.642212,327.715027 701.818054,338.733978 697.587097,349.677887 
	C693.106934,361.266083 686.902588,372.084381 677.521667,380.919159 
	C669.674255,388.309753 661.907166,395.684235 651.994446,400.092224 
	C635.507812,407.423492 618.614929,413.359100 600.090942,411.772247 
	C589.549194,410.869202 579.694031,407.531525 569.614014,404.381744 
	C553.179016,399.246216 540.438660,389.523682 529.409363,377.091034 
	C515.385437,361.282684 507.581146,342.415588 504.222534,321.723145 
	C501.591492,305.513062 505.560181,290.236145 510.663544,274.874268 
	C514.725647,262.646667 521.873474,252.622833 529.177734,242.485641 
	C530.103333,241.200958 531.281799,240.098480 532.534058,238.611115 
M572.823303,262.214905 
	C557.511475,270.848450 543.328796,296.365356 547.571899,310.036682 
	C566.589355,310.036682 585.664246,310.036682 604.215454,310.036682 
	C604.215454,291.298401 604.215454,272.754272 604.215454,254.183823 
	C592.389343,251.983429 582.871460,256.755859 572.823303,262.214905 
M640.499512,312.815796 
	C628.747375,312.815796 616.995239,312.815796 605.088196,312.815796 
	C605.088196,331.059326 605.088196,348.929474 605.088196,368.088501 
	C612.907654,366.668671 620.656189,366.386414 627.507202,363.761505 
	C638.566040,359.524536 647.391785,352.004425 653.668030,341.545837 
	C658.232788,333.939209 661.586853,326.236877 661.327393,317.174408 
	C661.236389,313.997864 660.255249,312.656738 656.966431,312.770966 
	C651.816406,312.949829 646.655518,312.816803 640.499512,312.815796 
z"/>
<path fill="#F0C667" opacity="1.000000" stroke="none" 
	d="
M361.821503,584.598633 
	C354.811432,584.735718 348.395660,584.372437 343.204803,579.575195 
	C342.721039,579.128174 342.140198,578.761963 341.741028,578.251404 
	C338.936737,574.665283 339.573212,556.647034 342.786316,553.310852 
	C353.651093,542.030090 364.739960,530.962585 375.484344,519.569397 
	C383.406128,511.169220 390.833557,502.304810 398.654785,493.806946 
	C403.464142,488.581512 408.612061,483.668335 413.586761,478.594208 
	C422.486694,469.516418 431.485565,460.531738 440.222626,451.299530 
	C446.531403,444.633301 452.462158,437.610229 458.611267,430.791199 
	C459.917877,429.342224 461.440369,428.087982 463.205139,426.421295 
	C475.082031,437.899445 486.872620,449.294159 498.071838,460.117371 
	C485.497070,472.579346 473.633514,484.532471 461.544891,496.253510 
	C452.205811,505.308533 442.460815,513.945190 433.130066,523.008484 
	C426.303986,529.638855 419.965332,536.768555 413.213501,543.478516 
	C405.486420,551.157776 397.520294,558.595886 389.702026,566.184143 
	C385.433807,570.326721 381.156616,574.468323 377.066345,578.783752 
	C372.994904,583.079346 367.979767,584.629089 361.821503,584.598633 
z"/>
<path fill="#F0C667" opacity="1.000000" stroke="none" 
	d="
M522.648865,406.347900 
	C528.548401,410.444244 534.154114,414.442413 540.081299,417.887390 
	C542.738220,419.431610 543.895630,420.895294 542.607361,423.715057 
	C540.421692,428.499084 538.445129,433.413757 535.829468,437.956085 
	C533.397217,442.179779 527.129272,443.460510 521.663940,441.485931 
	C514.169189,438.778198 508.119537,434.111084 502.930786,428.103241 
	C498.526428,423.003601 493.588348,418.356720 489.301117,413.166962 
	C486.286377,409.517517 483.471161,405.529846 481.443542,401.275421 
	C477.487793,392.975372 479.749023,384.550751 482.308624,376.349731 
	C482.800720,374.773010 484.269989,373.314880 485.629150,372.228088 
	C490.922424,367.995544 491.727936,368.274872 495.743683,373.680328 
	C502.138702,382.288361 508.600891,390.851624 515.260071,399.255157 
	C517.287476,401.813660 520.056580,403.784393 522.648865,406.347900 
z"/>
<path fill="#2BD5E7" opacity="1.000000" stroke="none" 
	d="
M637.155640,457.963867 
	C637.154907,449.195221 637.154907,440.921387 637.154907,432.371094 
	C648.994080,432.371094 660.540100,432.371094 672.526123,432.371094 
	C672.526123,444.312714 672.526123,456.182892 672.526123,468.514404 
	C661.086792,468.514404 649.548340,468.514404 637.156311,468.514404 
	C637.156311,465.291473 637.156311,461.875061 637.155640,457.963867 
z"/>
<path fill="#2CE1ED" opacity="1.000000" stroke="none" 
	d="
M464.806213,327.168488 
	C469.677032,327.635773 474.078339,328.098816 478.266357,328.539398 
	C478.266357,336.827362 478.322083,344.987305 478.187683,353.144135 
	C478.172821,354.046082 477.095825,355.686676 476.470459,355.706726 
	C469.445892,355.931885 462.410400,355.799927 455.383698,355.985291 
	C450.581390,356.112000 449.460449,352.793915 449.409149,349.301147 
	C449.319489,343.199371 449.578430,337.045349 450.407593,331.011688 
	C450.604797,329.576752 453.489227,327.879456 455.393127,327.458496 
	C458.256042,326.825500 461.344269,327.211456 464.806213,327.168488 
z"/>
<path fill="#2CE1ED" opacity="1.000000" stroke="none" 
	d="
M587.913574,437.226807 
	C587.927551,444.844879 587.927551,451.988708 587.927551,459.551727 
	C578.033508,459.551727 568.351807,459.551727 558.352051,459.551727 
	C558.352051,450.505524 558.352051,441.608459 558.352051,432.073120 
	C568.089905,432.073120 577.738037,432.073120 587.671692,432.073120 
	C587.757019,433.825378 587.828308,435.289001 587.913574,437.226807 
z"/>
<path fill="#2BD5E7" opacity="1.000000" stroke="none" 
	d="
M477.750916,294.941833 
	C472.877197,295.258087 468.007416,295.686615 463.128601,295.857574 
	C458.675171,296.013611 454.211945,295.890594 449.373535,295.890594 
	C449.373535,283.599548 449.373535,271.616577 449.373535,259.325867 
	C459.126709,259.325867 468.684998,259.325867 478.907074,259.325867 
	C478.907074,263.635376 478.907074,267.874603 478.476074,272.744141 
	C477.694794,274.920166 477.112091,276.455383 477.041595,278.013763 
	C476.884552,281.486908 477.111145,284.979309 476.903809,288.447266 
	C476.837555,289.555786 476.130035,290.940430 475.260773,291.555389 
	C474.818329,291.868378 473.185364,290.948395 472.418488,290.233826 
	C471.549377,289.424133 471.047485,288.220398 470.385956,287.187958 
	C470.311523,287.684601 470.237122,288.181244 470.162689,288.677887 
	C466.848450,288.503113 463.534424,288.324219 460.219879,288.155487 
	C458.891754,288.087891 456.700134,287.552307 456.399109,288.081543 
	C455.570984,289.537537 455.104919,291.515381 455.374146,293.141296 
	C455.501587,293.910736 457.622314,294.821411 458.862549,294.855927 
	C465.154602,295.031036 471.454041,294.939758 477.750916,294.941833 
M472.243103,268.067963 
	C467.734863,268.067963 463.226624,268.067963 459.310242,268.067963 
	C458.060974,272.289215 457.079346,275.606201 455.902588,279.582520 
	C457.646790,279.006500 458.633026,278.844940 459.436554,278.372589 
	C460.374847,277.821014 461.153625,276.998077 461.935425,276.347931 
	C465.531952,278.992493 471.713257,279.563141 472.802155,276.940186 
	C473.854340,274.405609 473.019867,271.087830 472.243103,268.067963 
z"/>
<path fill="#2BD5E7" opacity="1.000000" stroke="none" 
	d="
M281.040558,271.994751 
	C281.043060,266.881134 281.043060,262.264587 281.043060,257.246094 
	C289.039948,257.246094 296.495728,257.123199 303.937683,257.388031 
	C304.969666,257.424744 306.762268,259.350494 306.796265,260.445404 
	C307.042999,268.395416 306.928864,276.356598 306.928864,284.637939 
	C298.254669,284.637939 289.997650,284.637939 281.038055,284.637939 
	C281.038055,280.666290 281.038055,276.579071 281.040558,271.994751 
z"/>
<path fill="#2CE1ED" opacity="1.000000" stroke="none" 
	d="
M322.069824,332.293579 
	C321.879852,329.510468 322.396545,328.109833 325.266724,328.205078 
	C331.398773,328.408569 337.551605,328.127563 343.669464,328.490692 
	C344.813110,328.558563 346.717621,330.672180 346.765594,331.900513 
	C347.056396,339.344299 346.910461,346.805145 346.910461,355.064697 
	C338.683441,355.064697 330.727264,355.064697 322.059937,355.064697 
	C322.059937,347.912262 322.059937,340.336731 322.069824,332.293579 
z"/>
<path fill="#24EEF2" opacity="1.000000" stroke="none" 
	d="
M434.456970,303.963623 
	C425.158234,303.982239 416.307312,303.982239 407.270630,303.982239 
	C407.270630,296.465729 407.270630,289.664093 407.270630,282.442596 
	C416.959930,282.442596 426.650635,282.442596 436.574493,282.442596 
	C436.902710,288.413910 437.393951,294.156372 437.403992,299.899658 
	C437.406372,301.246674 435.781189,302.596497 434.456970,303.963623 
z"/>
<path fill="#22C0D7" opacity="1.000000" stroke="none" 
	d="
M761.199097,467.994812 
	C758.651062,467.923309 756.496338,467.923309 754.274536,467.923309 
	C753.846313,465.282166 753.682190,462.697021 752.966003,460.275116 
	C752.180786,457.619720 750.886292,455.114899 749.629272,452.102478 
	C751.876953,452.401581 754.186890,452.708954 756.488525,453.015228 
	C756.685913,452.725311 756.960571,452.482727 757.032837,452.190125 
	C757.595581,449.912476 758.119385,447.625244 758.655273,445.340942 
	C760.476440,446.531769 762.180237,448.013184 764.159485,448.812622 
	C765.510376,449.358276 767.503662,449.460144 768.740173,448.833710 
	C770.087952,448.150940 770.893494,446.397980 772.626770,444.258057 
	C774.719238,448.904175 775.992004,452.735809 778.118286,456.013824 
	C779.133240,457.578613 781.769104,458.091949 783.917480,459.209930 
	C784.973816,466.963806 775.620911,465.000977 773.477844,469.763855 
	C770.137146,469.392456 767.230774,464.248352 763.983582,469.470093 
	C763.971130,469.490051 762.423279,468.555237 761.199097,467.994812 
z"/>
<path fill="#F0C667" opacity="1.000000" stroke="none" 
	d="
M719.341736,448.607300 
	C724.795898,453.984741 725.643188,457.090729 723.196777,461.833313 
	C720.746094,466.584167 714.325012,470.356140 709.803345,469.701019 
	C703.074219,468.726074 698.049927,464.430328 697.159241,458.890472 
	C695.980286,451.557281 705.952759,443.778229 713.546997,446.167725 
	C715.426086,446.758942 717.210815,447.649780 719.341736,448.607300 
z"/>
<path fill="#2BD5E7" opacity="1.000000" stroke="none" 
	d="
M375.021545,282.888855 
	C366.742432,277.232635 366.599579,267.993195 374.342438,262.600647 
	C378.973083,259.375610 384.388947,261.474426 388.036163,267.907440 
	C390.330261,271.953796 389.368317,277.574219 385.500824,281.673584 
	C382.538696,284.813263 379.092957,285.187500 375.021545,282.888855 
z"/>
<path fill="#2CE1ED" opacity="1.000000" stroke="none" 
	d="
M673.327026,550.125854 
	C673.559814,548.588867 674.199890,547.360474 673.947327,546.356567 
	C672.519165,540.680786 675.577087,540.086487 680.123840,540.167297 
	C691.864868,540.375977 691.867004,540.250732 691.864319,552.151672 
	C691.863892,554.128601 691.864258,556.105591 691.864258,558.465942 
	C685.919739,558.465942 680.240479,558.465942 674.513550,558.465942 
	C674.097229,555.695679 673.709656,553.116882 673.327026,550.125854 
z"/>
<path fill="#2CE1ED" opacity="1.000000" stroke="none" 
	d="
M752.095398,538.636536 
	C752.426392,528.684326 756.784729,525.124634 764.380066,528.181458 
	C768.193848,529.716370 770.061890,534.519958 768.786621,540.144470 
	C768.029663,543.482666 765.691040,544.878540 762.257935,544.963318 
	C755.542053,545.129028 753.331787,543.943298 752.095398,538.636536 
z"/>
<path fill="#24EEF2" opacity="1.000000" stroke="none" 
	d="
M477.831299,294.949860 
	C471.454041,294.939758 465.154602,295.031036 458.862549,294.855927 
	C457.622314,294.821411 455.501587,293.910736 455.374146,293.141296 
	C455.104919,291.515381 455.570984,289.537537 456.399109,288.081543 
	C456.700134,287.552307 458.891754,288.087891 460.219879,288.155487 
	C463.534424,288.324219 466.848450,288.503113 470.162689,288.677887 
	C470.237122,288.181244 470.311523,287.684601 470.385956,287.187958 
	C471.047485,288.220398 471.549377,289.424133 472.418488,290.233826 
	C473.185364,290.948395 474.818329,291.868378 475.260773,291.555389 
	C476.130035,290.940430 476.837555,289.555786 476.903809,288.447266 
	C477.111145,284.979309 476.884552,281.486908 477.041595,278.013763 
	C477.112091,276.455383 477.694794,274.920166 478.383301,273.203186 
	C478.765747,278.885254 478.809937,284.738586 478.544983,291.357605 
	C478.132568,293.014496 478.029236,293.905731 477.925934,294.796936 
	C477.925934,294.796936 477.911713,294.957886 477.831299,294.949860 
z"/>
<path fill="#2BD5E7" opacity="1.000000" stroke="none" 
	d="
M478.249695,294.688110 
	C478.029236,293.905731 478.132568,293.014496 478.414917,291.702820 
	C478.587097,292.381317 478.580292,293.480286 478.249695,294.688110 
z"/>
<path fill="#000000" opacity="1.000000" stroke="none" 
	d="
M573.116638,261.984894 
	C582.871460,256.755859 592.389343,251.983429 604.215454,254.183823 
	C604.215454,272.754272 604.215454,291.298401 604.215454,310.036682 
	C585.664246,310.036682 566.589355,310.036682 547.571899,310.036682 
	C543.328796,296.365356 557.511475,270.848450 573.116638,261.984894 
z"/>
<path fill="#000000" opacity="1.000000" stroke="none" 
	d="
M640.999390,312.815857 
	C646.655518,312.816803 651.816406,312.949829 656.966431,312.770966 
	C660.255249,312.656738 661.236389,313.997864 661.327393,317.174408 
	C661.586853,326.236877 658.232788,333.939209 653.668030,341.545837 
	C647.391785,352.004425 638.566040,359.524536 627.507202,363.761505 
	C620.656189,366.386414 612.907654,366.668671 605.088196,368.088501 
	C605.088196,348.929474 605.088196,331.059326 605.088196,312.815796 
	C616.995239,312.815796 628.747375,312.815796 640.999390,312.815857 
z"/>
<path fill="#24EEF2" opacity="1.000000" stroke="none" 
	d="
M472.628632,268.091003 
	C473.019867,271.087830 473.854340,274.405609 472.802155,276.940186 
	C471.713257,279.563141 465.531952,278.992493 461.935425,276.347931 
	C461.153625,276.998077 460.374847,277.821014 459.436554,278.372589 
	C458.633026,278.844940 457.646790,279.006500 455.902588,279.582520 
	C457.079346,275.606201 458.060974,272.289215 459.310242,268.067963 
	C463.226624,268.067963 467.734863,268.067963 472.628632,268.091003 
z"/>
</svg>